<svg width="168" height="47" viewBox="0 0 168 47" fill="none" xmlns="http://www.w3.org/2000/svg">
<g filter="url(#filter0_d_1517_31595)">
<circle cx="22.8901" cy="22.8452" r="14.6801" fill="#3380F2"/>
</g>
<g clip-path="url(#clip0_1517_31595)">
<path d="M23.3759 23.7627H24.8201L25.3978 21.3161H23.3759V20.0927C23.3759 19.4627 23.3759 18.8694 24.5312 18.8694H25.3978V16.8141C25.2095 16.7878 24.4983 16.7285 23.7473 16.7285C22.1789 16.7285 21.0651 17.7421 21.0651 19.6034V21.3161H19.332V23.7627H21.0651V28.962H23.3759V23.7627Z" fill="white"/>
</g>
<g filter="url(#filter1_d_1517_31595)">
<circle cx="62.5913" cy="22.8452" r="14.6801" fill="white"/>
</g>
<g clip-path="url(#clip1_1517_31595)">
<path d="M68.8698 18.9647C68.4288 19.1712 67.9611 19.3069 67.4822 19.3671C67.9869 19.0475 68.3647 18.5445 68.5451 17.9517C68.0714 18.2502 67.5521 18.4594 67.0108 18.5726C66.6472 18.1607 66.1653 17.8875 65.6399 17.7955C65.1145 17.7035 64.5752 17.7979 64.1057 18.0639C63.6363 18.33 63.263 18.7528 63.0439 19.2667C62.8247 19.7806 62.7721 20.3567 62.8942 20.9055C61.9335 20.8545 60.9938 20.5902 60.1359 20.1297C59.278 19.6692 58.5211 19.0228 57.9145 18.2325C57.6997 18.623 57.5869 19.067 57.5875 19.5188C57.5875 20.4058 58.0138 21.1893 58.662 21.6481C58.2784 21.6353 57.9033 21.5256 57.5679 21.3282V21.36C57.568 21.9507 57.761 22.5231 58.1143 22.9803C58.4675 23.4375 58.9592 23.7513 59.506 23.8684C59.1499 23.9706 58.7766 23.9857 58.4142 23.9125C58.5683 24.4209 58.8688 24.8656 59.2735 25.1842C59.6783 25.5028 60.167 25.6795 60.6712 25.6894C60.1701 26.1061 59.5962 26.4142 58.9826 26.596C58.3689 26.7778 57.7274 26.8297 57.0947 26.7488C58.1991 27.5008 59.4847 27.9 60.7977 27.8988C65.2419 27.8988 67.6722 24.0006 67.6722 20.6199C67.6722 20.5097 67.6694 20.3984 67.6647 20.2895C68.1378 19.9275 68.5461 19.4791 68.8704 18.9653L68.8698 18.9647Z" fill="#696969"/>
</g>
<g filter="url(#filter2_d_1517_31595)">
<circle cx="104.185" cy="22.8452" r="14.6801" fill="white"/>
</g>
<g clip-path="url(#clip2_1517_31595)">
<path d="M104.186 16.7285C105.848 16.7285 106.055 16.7346 106.707 16.7652C107.359 16.7958 107.802 16.8979 108.193 17.0496C108.596 17.205 108.936 17.4154 109.276 17.7549C109.587 18.0607 109.828 18.4305 109.982 18.8388C110.133 19.2284 110.235 19.6725 110.266 20.3239C110.295 20.976 110.303 21.1833 110.303 22.8452C110.303 24.5072 110.297 24.7145 110.266 25.3666C110.235 26.018 110.133 26.4614 109.982 26.8517C109.829 27.2602 109.588 27.6301 109.276 27.9356C108.971 28.2465 108.601 28.4872 108.193 28.6408C107.803 28.7919 107.359 28.8947 106.707 28.9253C106.055 28.954 105.848 28.962 104.186 28.962C102.524 28.962 102.317 28.9558 101.665 28.9253C101.013 28.8947 100.57 28.7919 100.18 28.6408C99.7712 28.4876 99.4013 28.2469 99.0957 27.9356C98.7846 27.6299 98.544 27.26 98.3905 26.8517C98.2388 26.4621 98.1366 26.018 98.106 25.3666C98.0773 24.7145 98.0693 24.5072 98.0693 22.8452C98.0693 21.1833 98.0755 20.976 98.106 20.3239C98.1366 19.6719 98.2388 19.229 98.3905 18.8388C98.5435 18.4303 98.7843 18.0603 99.0957 17.7549C99.4014 17.4437 99.7713 17.203 100.18 17.0496C100.57 16.8979 101.013 16.7958 101.665 16.7652C102.317 16.7365 102.524 16.7285 104.186 16.7285ZM104.186 19.7869C103.375 19.7869 102.597 20.1091 102.023 20.6827C101.45 21.2562 101.128 22.0341 101.128 22.8452C101.128 23.6564 101.45 24.4343 102.023 25.0078C102.597 25.5814 103.375 25.9036 104.186 25.9036C104.997 25.9036 105.775 25.5814 106.349 25.0078C106.922 24.4343 107.244 23.6564 107.244 22.8452C107.244 22.0341 106.922 21.2562 106.349 20.6827C105.775 20.1091 104.997 19.7869 104.186 19.7869V19.7869ZM108.162 19.634C108.162 19.4312 108.081 19.2367 107.938 19.0933C107.795 18.9499 107.6 18.8694 107.397 18.8694C107.195 18.8694 107 18.9499 106.857 19.0933C106.713 19.2367 106.633 19.4312 106.633 19.634C106.633 19.8367 106.713 20.0312 106.857 20.1746C107 20.318 107.195 20.3985 107.397 20.3985C107.6 20.3985 107.795 20.318 107.938 20.1746C108.081 20.0312 108.162 19.8367 108.162 19.634ZM104.186 21.0102C104.673 21.0102 105.139 21.2036 105.484 21.5477C105.828 21.8918 106.021 22.3586 106.021 22.8452C106.021 23.3319 105.828 23.7987 105.484 24.1428C105.139 24.4869 104.673 24.6803 104.186 24.6803C103.699 24.6803 103.233 24.4869 102.889 24.1428C102.544 23.7987 102.351 23.3319 102.351 22.8452C102.351 22.3586 102.544 21.8918 102.889 21.5477C103.233 21.2036 103.699 21.0102 104.186 21.0102V21.0102Z" fill="#696969"/>
</g>
<g filter="url(#filter3_d_1517_31595)">
<circle cx="144.44" cy="22.8452" r="14.6801" fill="white"/>
</g>
<g clip-path="url(#clip3_1517_31595)">
<path d="M150.361 19.4799C150.625 20.5699 150.625 22.8453 150.625 22.8453C150.625 22.8453 150.625 25.1207 150.361 26.2107C150.214 26.8132 149.785 27.2872 149.242 27.4475C148.254 27.7387 144.848 27.7387 144.848 27.7387C144.848 27.7387 141.444 27.7387 140.455 27.4475C139.909 27.2848 139.48 26.8114 139.335 26.2107C139.071 25.1207 139.071 22.8453 139.071 22.8453C139.071 22.8453 139.071 20.5699 139.335 19.4799C139.482 18.8774 139.911 18.4033 140.455 18.2431C141.444 17.9519 144.848 17.9519 144.848 17.9519C144.848 17.9519 148.254 17.9519 149.242 18.2431C149.787 18.4058 150.216 18.8792 150.361 19.4799V19.4799ZM143.693 24.9861L147.159 22.8453L143.693 20.7044V24.9861Z" fill="#696969"/>
</g>
<defs>
<filter id="filter0_d_1517_31595" x="0.0543308" y="0.824972" width="45.6716" height="45.6716" filterUnits="userSpaceOnUse" color-interpolation-filters="sRGB">
<feFlood flood-opacity="0" result="BackgroundImageFix"/>
<feColorMatrix in="SourceAlpha" type="matrix" values="0 0 0 0 0 0 0 0 0 0 0 0 0 0 0 0 0 0 127 0" result="hardAlpha"/>
<feOffset dy="0.815563"/>
<feGaussianBlur stdDeviation="4.07782"/>
<feColorMatrix type="matrix" values="0 0 0 0 0 0 0 0 0 0 0 0 0 0 0 0 0 0 0.1 0"/>
<feBlend mode="normal" in2="BackgroundImageFix" result="effect1_dropShadow_1517_31595"/>
<feBlend mode="normal" in="SourceGraphic" in2="effect1_dropShadow_1517_31595" result="shape"/>
</filter>
<filter id="filter1_d_1517_31595" x="39.7555" y="0.824972" width="45.6716" height="45.6716" filterUnits="userSpaceOnUse" color-interpolation-filters="sRGB">
<feFlood flood-opacity="0" result="BackgroundImageFix"/>
<feColorMatrix in="SourceAlpha" type="matrix" values="0 0 0 0 0 0 0 0 0 0 0 0 0 0 0 0 0 0 127 0" result="hardAlpha"/>
<feOffset dy="0.815563"/>
<feGaussianBlur stdDeviation="4.07782"/>
<feColorMatrix type="matrix" values="0 0 0 0 0 0 0 0 0 0 0 0 0 0 0 0 0 0 0.1 0"/>
<feBlend mode="normal" in2="BackgroundImageFix" result="effect1_dropShadow_1517_31595"/>
<feBlend mode="normal" in="SourceGraphic" in2="effect1_dropShadow_1517_31595" result="shape"/>
</filter>
<filter id="filter2_d_1517_31595" x="81.3493" y="0.824972" width="45.6716" height="45.6716" filterUnits="userSpaceOnUse" color-interpolation-filters="sRGB">
<feFlood flood-opacity="0" result="BackgroundImageFix"/>
<feColorMatrix in="SourceAlpha" type="matrix" values="0 0 0 0 0 0 0 0 0 0 0 0 0 0 0 0 0 0 127 0" result="hardAlpha"/>
<feOffset dy="0.815563"/>
<feGaussianBlur stdDeviation="4.07782"/>
<feColorMatrix type="matrix" values="0 0 0 0 0 0 0 0 0 0 0 0 0 0 0 0 0 0 0.1 0"/>
<feBlend mode="normal" in2="BackgroundImageFix" result="effect1_dropShadow_1517_31595"/>
<feBlend mode="normal" in="SourceGraphic" in2="effect1_dropShadow_1517_31595" result="shape"/>
</filter>
<filter id="filter3_d_1517_31595" x="121.604" y="0.824972" width="45.6716" height="45.6716" filterUnits="userSpaceOnUse" color-interpolation-filters="sRGB">
<feFlood flood-opacity="0" result="BackgroundImageFix"/>
<feColorMatrix in="SourceAlpha" type="matrix" values="0 0 0 0 0 0 0 0 0 0 0 0 0 0 0 0 0 0 127 0" result="hardAlpha"/>
<feOffset dy="0.815563"/>
<feGaussianBlur stdDeviation="4.07782"/>
<feColorMatrix type="matrix" values="0 0 0 0 0 0 0 0 0 0 0 0 0 0 0 0 0 0 0.1 0"/>
<feBlend mode="normal" in2="BackgroundImageFix" result="effect1_dropShadow_1517_31595"/>
<feBlend mode="normal" in="SourceGraphic" in2="effect1_dropShadow_1517_31595" result="shape"/>
</filter>
<clipPath id="clip0_1517_31595">
<rect width="13.8646" height="14.6801" fill="white" transform="translate(15.2881 15.5051)"/>
</clipPath>
<clipPath id="clip1_1517_31595">
<rect width="13.8646" height="14.6801" fill="white" transform="translate(56.0674 15.5051)"/>
</clipPath>
<clipPath id="clip2_1517_31595">
<rect width="14.6801" height="14.6801" fill="white" transform="translate(96.8447 15.5051)"/>
</clipPath>
<clipPath id="clip3_1517_31595">
<rect width="13.8646" height="14.6801" fill="white" transform="translate(137.916 15.5051)"/>
</clipPath>
</defs>
</svg>
