<svg width="289" height="67" viewBox="0 0 289 67" fill="none" xmlns="http://www.w3.org/2000/svg">
<g filter="url(#filter0_d_1517_31251)">
<circle cx="33.9971" cy="32.2167" r="21.3506" fill="#3380F2"/>
</g>
<g clip-path="url(#clip0_1517_31251)">
<path d="M35.0844 33.5512H37.1849L38.0251 29.9927H35.0844V28.2135C35.0844 27.2972 35.0844 26.4343 36.7648 26.4343H38.0251V23.4452C37.7512 23.4069 36.7169 23.3206 35.6247 23.3206C33.3436 23.3206 31.7237 24.7947 31.7237 27.5018V29.9927H29.2031V33.5512H31.7237V41.1129H35.0844V33.5512Z" fill="white"/>
</g>
<g filter="url(#filter1_d_1517_31251)">
<circle cx="107.648" cy="32.2168" r="21.3506" fill="white"/>
</g>
<g clip-path="url(#clip1_1517_31251)">
<path d="M115.592 26.5732C114.951 26.8736 114.271 27.0709 113.574 27.1586C114.308 26.6937 114.858 25.9621 115.12 25.1C114.431 25.5342 113.676 25.8384 112.889 26.003C112.36 25.4039 111.659 25.0066 110.895 24.8728C110.131 24.739 109.346 24.8763 108.664 25.2632C107.981 25.6502 107.438 26.2651 107.119 27.0125C106.8 27.7599 106.724 28.5978 106.901 29.396C105.504 29.3218 104.138 28.9374 102.89 28.2676C101.642 27.5979 100.541 26.6578 99.659 25.5084C99.3467 26.0763 99.1826 26.722 99.1835 27.3792C99.1835 28.6692 99.8035 29.8087 100.746 30.476C100.188 30.4574 99.6428 30.2978 99.1549 30.0107V30.0569C99.1551 30.916 99.4358 31.7486 99.9496 32.4136C100.463 33.0785 101.178 33.5349 101.974 33.7052C101.456 33.8538 100.913 33.8757 100.386 33.7693C100.61 34.5088 101.047 35.1555 101.636 35.6189C102.224 36.0823 102.935 36.3392 103.668 36.3536C102.94 36.9597 102.105 37.4078 101.212 37.6722C100.32 37.9365 99.3869 38.0121 98.4668 37.8944C100.073 38.9881 101.943 39.5688 103.852 39.5669C110.316 39.5669 113.851 33.8974 113.851 28.9805C113.851 28.8204 113.846 28.6585 113.84 28.5001C114.528 27.9736 115.121 27.3214 115.593 26.5741L115.592 26.5732Z" fill="#696969"/>
</g>
<g filter="url(#filter2_d_1517_31251)">
<circle cx="180.221" cy="32.2168" r="21.3506" fill="white"/>
</g>
<g clip-path="url(#clip2_1517_31251)">
<path d="M180.22 23.3209C182.637 23.3209 182.939 23.3298 183.887 23.3743C184.835 23.4187 185.48 23.5673 186.047 23.7879C186.634 24.0139 187.129 24.3199 187.624 24.8137C188.076 25.2584 188.426 25.7963 188.649 26.39C188.869 26.9567 189.019 27.6026 189.063 28.55C189.105 29.4983 189.116 29.7999 189.116 32.217C189.116 34.6341 189.108 34.9356 189.063 35.884C189.019 36.8314 188.869 37.4764 188.649 38.0439C188.427 38.638 188.077 39.1761 187.624 39.6203C187.179 40.0725 186.641 40.4225 186.047 40.6461C185.481 40.8658 184.835 41.0152 183.887 41.0597C182.939 41.1015 182.637 41.1131 180.22 41.1131C177.803 41.1131 177.502 41.1042 176.553 41.0597C175.606 41.0152 174.961 40.8658 174.393 40.6461C173.799 40.4232 173.261 40.0731 172.817 39.6203C172.365 39.1757 172.014 38.6377 171.791 38.0439C171.571 37.4773 171.422 36.8314 171.378 35.884C171.336 34.9356 171.324 34.6341 171.324 32.217C171.324 29.7999 171.333 29.4983 171.378 28.55C171.422 27.6017 171.571 26.9576 171.791 26.39C172.014 25.7959 172.364 25.2579 172.817 24.8137C173.261 24.3611 173.799 24.011 174.393 23.7879C174.961 23.5673 175.605 23.4187 176.553 23.3743C177.502 23.3325 177.803 23.3209 180.22 23.3209ZM180.22 27.7689C179.041 27.7689 177.909 28.2376 177.075 29.0717C176.241 29.9059 175.772 31.0373 175.772 32.217C175.772 33.3967 176.241 34.5281 177.075 35.3622C177.909 36.1964 179.041 36.665 180.22 36.665C181.4 36.665 182.531 36.1964 183.366 35.3622C184.2 34.5281 184.668 33.3967 184.668 32.217C184.668 31.0373 184.2 29.9059 183.366 29.0717C182.531 28.2376 181.4 27.7689 180.22 27.7689V27.7689ZM186.003 27.5465C186.003 27.2516 185.886 26.9688 185.677 26.7602C185.469 26.5517 185.186 26.4345 184.891 26.4345C184.596 26.4345 184.313 26.5517 184.104 26.7602C183.896 26.9688 183.779 27.2516 183.779 27.5465C183.779 27.8415 183.896 28.1243 184.104 28.3329C184.313 28.5414 184.596 28.6586 184.891 28.6586C185.186 28.6586 185.469 28.5414 185.677 28.3329C185.886 28.1243 186.003 27.8415 186.003 27.5465ZM180.22 29.5482C180.928 29.5482 181.607 29.8293 182.107 30.3298C182.608 30.8303 182.889 31.5092 182.889 32.217C182.889 32.9248 182.608 33.6036 182.107 34.1041C181.607 34.6046 180.928 34.8858 180.22 34.8858C179.513 34.8858 178.834 34.6046 178.333 34.1041C177.833 33.6036 177.551 32.9248 177.551 32.217C177.551 31.5092 177.833 30.8303 178.333 30.3298C178.834 29.8293 179.513 29.5482 180.22 29.5482V29.5482Z" fill="#696969"/>
</g>
<g filter="url(#filter3_d_1517_31251)">
<circle cx="254.947" cy="32.2168" r="21.3506" fill="white"/>
</g>
<g clip-path="url(#clip3_1517_31251)">
<path d="M262.372 27.3223C262.756 28.9076 262.756 32.2169 262.756 32.2169C262.756 32.2169 262.756 35.5263 262.372 37.1116C262.159 37.9878 261.534 38.6773 260.744 38.9103C259.308 39.3338 254.354 39.3338 254.354 39.3338C254.354 39.3338 249.403 39.3338 247.964 38.9103C247.17 38.6737 246.547 37.9852 246.336 37.1116C245.952 35.5263 245.952 32.2169 245.952 32.2169C245.952 32.2169 245.952 28.9076 246.336 27.3223C246.55 26.446 247.174 25.7566 247.964 25.5235C249.403 25.1 254.354 25.1 254.354 25.1C254.354 25.1 259.308 25.1 260.744 25.5235C261.538 25.7601 262.161 26.4487 262.372 27.3223V27.3223ZM252.674 35.3306L257.715 32.2169L252.674 29.1033V35.3306Z" fill="#696969"/>
</g>
<defs>
<filter id="filter0_d_1517_31251" x="0.785014" y="0.190705" width="66.4241" height="66.4242" filterUnits="userSpaceOnUse" color-interpolation-filters="sRGB">
<feFlood flood-opacity="0" result="BackgroundImageFix"/>
<feColorMatrix in="SourceAlpha" type="matrix" values="0 0 0 0 0 0 0 0 0 0 0 0 0 0 0 0 0 0 127 0" result="hardAlpha"/>
<feOffset dy="1.18615"/>
<feGaussianBlur stdDeviation="5.93074"/>
<feColorMatrix type="matrix" values="0 0 0 0 0 0 0 0 0 0 0 0 0 0 0 0 0 0 0.1 0"/>
<feBlend mode="normal" in2="BackgroundImageFix" result="effect1_dropShadow_1517_31251"/>
<feBlend mode="normal" in="SourceGraphic" in2="effect1_dropShadow_1517_31251" result="shape"/>
</filter>
<filter id="filter1_d_1517_31251" x="74.4364" y="0.190796" width="66.4241" height="66.4242" filterUnits="userSpaceOnUse" color-interpolation-filters="sRGB">
<feFlood flood-opacity="0" result="BackgroundImageFix"/>
<feColorMatrix in="SourceAlpha" type="matrix" values="0 0 0 0 0 0 0 0 0 0 0 0 0 0 0 0 0 0 127 0" result="hardAlpha"/>
<feOffset dy="1.18615"/>
<feGaussianBlur stdDeviation="5.93074"/>
<feColorMatrix type="matrix" values="0 0 0 0 0 0 0 0 0 0 0 0 0 0 0 0 0 0 0.1 0"/>
<feBlend mode="normal" in2="BackgroundImageFix" result="effect1_dropShadow_1517_31251"/>
<feBlend mode="normal" in="SourceGraphic" in2="effect1_dropShadow_1517_31251" result="shape"/>
</filter>
<filter id="filter2_d_1517_31251" x="147.009" y="0.190796" width="66.4241" height="66.4242" filterUnits="userSpaceOnUse" color-interpolation-filters="sRGB">
<feFlood flood-opacity="0" result="BackgroundImageFix"/>
<feColorMatrix in="SourceAlpha" type="matrix" values="0 0 0 0 0 0 0 0 0 0 0 0 0 0 0 0 0 0 127 0" result="hardAlpha"/>
<feOffset dy="1.18615"/>
<feGaussianBlur stdDeviation="5.93074"/>
<feColorMatrix type="matrix" values="0 0 0 0 0 0 0 0 0 0 0 0 0 0 0 0 0 0 0.1 0"/>
<feBlend mode="normal" in2="BackgroundImageFix" result="effect1_dropShadow_1517_31251"/>
<feBlend mode="normal" in="SourceGraphic" in2="effect1_dropShadow_1517_31251" result="shape"/>
</filter>
<filter id="filter3_d_1517_31251" x="221.735" y="0.190796" width="66.4241" height="66.4242" filterUnits="userSpaceOnUse" color-interpolation-filters="sRGB">
<feFlood flood-opacity="0" result="BackgroundImageFix"/>
<feColorMatrix in="SourceAlpha" type="matrix" values="0 0 0 0 0 0 0 0 0 0 0 0 0 0 0 0 0 0 127 0" result="hardAlpha"/>
<feOffset dy="1.18615"/>
<feGaussianBlur stdDeviation="5.93074"/>
<feColorMatrix type="matrix" values="0 0 0 0 0 0 0 0 0 0 0 0 0 0 0 0 0 0 0.1 0"/>
<feBlend mode="normal" in2="BackgroundImageFix" result="effect1_dropShadow_1517_31251"/>
<feBlend mode="normal" in="SourceGraphic" in2="effect1_dropShadow_1517_31251" result="shape"/>
</filter>
<clipPath id="clip0_1517_31251">
<rect width="20.1645" height="21.3506" fill="white" transform="translate(23.3213 21.5413)"/>
</clipPath>
<clipPath id="clip1_1517_31251">
<rect width="20.1645" height="21.3506" fill="white" transform="translate(96.9727 21.5416)"/>
</clipPath>
<clipPath id="clip2_1517_31251">
<rect width="21.3506" height="21.3506" fill="white" transform="translate(169.545 21.5416)"/>
</clipPath>
<clipPath id="clip3_1517_31251">
<rect width="20.1645" height="21.3506" fill="white" transform="translate(244.272 21.5416)"/>
</clipPath>
</defs>
</svg>
